<svg width="1200" height="630" viewBox="0 0 1200 630" fill="none" xmlns="http://www.w3.org/2000/svg">
  <!-- Фон -->
  <rect width="1200" height="630" fill="#FF5A5F" />

  <!-- Сетка в стиле Neobrutalism -->
  <g opacity="0.1">
    <path d="M0 30H1200" stroke="black" stroke-width="2" />
    <path d="M0 90H1200" stroke="black" stroke-width="2" />
    <path d="M0 150H1200" stroke="black" stroke-width="2" />
    <path d="M0 210H1200" stroke="black" stroke-width="2" />
    <path d="M0 270H1200" stroke="black" stroke-width="2" />
    <path d="M0 330H1200" stroke="black" stroke-width="2" />
    <path d="M0 390H1200" stroke="black" stroke-width="2" />
    <path d="M0 450H1200" stroke="black" stroke-width="2" />
    <path d="M0 510H1200" stroke="black" stroke-width="2" />
    <path d="M0 570H1200" stroke="black" stroke-width="2" />

    <path d="M50 0V630" stroke="black" stroke-width="2" />
    <path d="M150 0V630" stroke="black" stroke-width="2" />
    <path d="M250 0V630" stroke="black" stroke-width="2" />
    <path d="M350 0V630" stroke="black" stroke-width="2" />
    <path d="M450 0V630" stroke="black" stroke-width="2" />
    <path d="M550 0V630" stroke="black" stroke-width="2" />
    <path d="M650 0V630" stroke="black" stroke-width="2" />
    <path d="M750 0V630" stroke="black" stroke-width="2" />
    <path d="M850 0V630" stroke="black" stroke-width="2" />
    <path d="M950 0V630" stroke="black" stroke-width="2" />
    <path d="M1050 0V630" stroke="black" stroke-width="2" />
    <path d="M1150 0V630" stroke="black" stroke-width="2" />
  </g>

  <!-- Обводка -->
  <rect x="20" y="20" width="1160" height="590" stroke="black" stroke-width="8" />

  <!-- Логотип -->
  <g transform="translate(100, 120) scale(2)">
    <rect width="100" height="100" fill="#FFFFFF" />
    <rect x="4" y="4" width="92" height="92" stroke="black" stroke-width="8" fill="none" />

    <!-- Буквы DB -->
    <path
      d="M25 70V30H38C42 30 45 33 45 37V37C45 41 42 44 38 44H25"
      stroke="black"
      stroke-width="8"
      stroke-linecap="square"
      fill="none"
    />

    <path
      d="M55 30V70H68C72 70 75 67 75 63V63V37C75 33 72 30 68 30H55Z"
      stroke="black"
      stroke-width="8"
      stroke-linecap="square"
      fill="none"
    />

    <!-- Декоративные элементы -->
    <rect x="85" y="15" width="10" height="10" fill="#FFDE59" />
    <rect x="15" y="85" width="10" height="10" fill="#53A6FA" />
  </g>

  <!-- Текст -->
  <g transform="translate(350, 200)">
    <text fill="white" font-family="'Archivo Black', sans-serif" font-size="72" font-weight="900">
      <tspan x="0" y="0">DIGITAL</tspan>
    </text>
    <text fill="white" font-family="'Archivo Black', sans-serif" font-size="120" font-weight="900">
      <tspan x="0" y="120">BOOSED</tspan>
    </text>
    <text fill="white" font-family="'Inter', sans-serif" font-size="36" font-weight="600">
      <tspan x="0" y="180">Превращаем ваш бизнес в цифровой успех</tspan>
    </text>
  </g>

  <!-- Декоративные элементы -->
  <rect x="1050" y="30" width="100" height="100" fill="#FFDE59" stroke="black" stroke-width="8" />
  <rect x="980" y="480" width="160" height="80" fill="#53A6FA" stroke="black" stroke-width="8" />
  <rect x="40" y="530" width="60" height="60" fill="#FFFFFF" stroke="black" stroke-width="8" />
</svg>
